<?xml version="1.0" encoding="iso-8859-1"?>
<!-- Uploaded to: SVG Repo, www.svgrepo.com, Generator: SVG Repo Mixer Tools -->
<!DOCTYPE svg PUBLIC "-//W3C//DTD SVG 1.1//EN" "http://www.w3.org/Graphics/SVG/1.1/DTD/svg11.dtd">
<svg fill="#000000" version="1.1" id="Capa_1" xmlns="http://www.w3.org/2000/svg" xmlns:xlink="http://www.w3.org/1999/xlink" 
	 width="800px" height="800px" viewBox="0 0 583.086 583.086"
	 xml:space="preserve">
<g>
	<g>
		<path d="M454.452,71.595h-44.687V21.92c0-11.83-9.59-21.42-21.42-21.42s-21.42,9.59-21.42,21.42v49.675H216.16V21.92
			c0-11.83-9.59-21.42-21.42-21.42s-21.42,9.59-21.42,21.42v49.675h-44.686c-32.059,0-58.14,26.082-58.14,58.14v394.71
			c0,32.059,26.082,58.141,58.14,58.141h325.818c32.059,0,58.14-26.082,58.14-58.141v-394.71
			C512.592,97.677,486.51,71.595,454.452,71.595z M469.752,524.445c0,8.45-6.851,15.3-15.3,15.3H128.634
			c-8.45,0-15.3-6.85-15.3-15.3v-394.71c0-8.45,6.85-15.3,15.3-15.3h44.686v33.133c0,11.83,9.59,21.42,21.42,21.42
			c11.83,0,21.42-9.59,21.42-21.42v-33.133h150.767v33.133c0,11.83,9.59,21.42,21.42,21.42s21.42-9.59,21.42-21.42v-33.133h44.686
			c8.45,0,15.301,6.85,15.301,15.3L469.752,524.445L469.752,524.445z"/>
		<path d="M454.452,583.086H128.634c-32.334,0-58.64-26.306-58.64-58.641v-394.71c0-32.334,26.306-58.64,58.64-58.64h44.186V21.92
			C172.82,9.833,182.653,0,194.74,0s21.92,9.833,21.92,21.92v49.175h149.766V21.92c0-12.087,9.833-21.92,21.92-21.92
			s21.92,9.833,21.92,21.92v49.175h44.187c32.334,0,58.64,26.306,58.64,58.64v394.71
			C513.092,556.78,486.786,583.086,454.452,583.086z M128.634,72.095c-31.783,0-57.64,25.857-57.64,57.64v394.71
			c0,31.783,25.857,57.641,57.64,57.641h325.818c31.782,0,57.64-25.857,57.64-57.641v-394.71c0-31.783-25.857-57.64-57.64-57.64
			h-45.187V21.92c0-11.535-9.385-20.92-20.92-20.92s-20.92,9.385-20.92,20.92v50.175H215.66V21.92c0-11.535-9.385-20.92-20.92-20.92
			s-20.92,9.385-20.92,20.92v50.175H128.634z M454.452,540.245H128.634c-8.712,0-15.8-7.088-15.8-15.8v-394.71
			c0-8.712,7.088-15.8,15.8-15.8h45.186v33.633c0,11.535,9.385,20.92,20.92,20.92s20.92-9.385,20.92-20.92v-33.633h151.767v33.633
			c0,11.535,9.385,20.92,20.92,20.92s20.92-9.385,20.92-20.92v-33.633h45.186c8.713,0,15.801,7.088,15.801,15.8v394.71
			C470.252,533.157,463.164,540.245,454.452,540.245z M128.634,114.936c-8.161,0-14.8,6.639-14.8,14.8v394.71
			c0,8.161,6.639,14.8,14.8,14.8h325.818c8.161,0,14.8-6.639,14.8-14.8l0.001-394.71c0-8.161-6.64-14.8-14.801-14.8h-44.186v32.633
			c0,12.087-9.833,21.92-21.92,21.92s-21.92-9.833-21.92-21.92v-32.633H216.66v32.633c0,12.087-9.833,21.92-21.92,21.92
			s-21.92-9.833-21.92-21.92v-32.633H128.634z"/>
	</g>
	<g>
		<path d="M395.704,237.608H187.382c-11.83,0-21.42,9.59-21.42,21.42s9.59,21.42,21.42,21.42h208.322
			c11.83,0,21.42-9.59,21.42-21.42S407.534,237.608,395.704,237.608z"/>
		<path d="M395.704,280.948H187.382c-12.087,0-21.92-9.833-21.92-21.92s9.833-21.92,21.92-21.92h208.322
			c12.087,0,21.92,9.833,21.92,21.92S407.791,280.948,395.704,280.948z M187.382,238.108c-11.535,0-20.92,9.385-20.92,20.92
			s9.385,20.92,20.92,20.92h208.322c11.535,0,20.92-9.385,20.92-20.92s-9.385-20.92-20.92-20.92H187.382z"/>
	</g>
	<g>
		<path d="M395.704,334.471H187.382c-11.83,0-21.42,9.59-21.42,21.42s9.59,21.42,21.42,21.42h208.322
			c11.83,0,21.42-9.59,21.42-21.42S407.534,334.471,395.704,334.471z"/>
		<path d="M395.704,377.811H187.382c-12.087,0-21.92-9.833-21.92-21.92s9.833-21.92,21.92-21.92h208.322
			c12.087,0,21.92,9.833,21.92,21.92S407.791,377.811,395.704,377.811z M187.382,334.971c-11.535,0-20.92,9.385-20.92,20.92
			s9.385,20.92,20.92,20.92h208.322c11.535,0,20.92-9.385,20.92-20.92s-9.385-20.92-20.92-20.92H187.382z"/>
	</g>
	<g>
		<path d="M342.629,431.335H187.382c-11.83,0-21.42,9.59-21.42,21.42c0,11.829,9.59,21.42,21.42,21.42h155.247
			c11.829,0,21.42-9.591,21.42-21.42C364.049,440.925,354.458,431.335,342.629,431.335z"/>
		<path d="M342.629,474.675H187.382c-12.087,0-21.92-9.833-21.92-21.92s9.833-21.92,21.92-21.92h155.247
			c12.087,0,21.92,9.833,21.92,21.92S354.716,474.675,342.629,474.675z M187.382,431.835c-11.535,0-20.92,9.385-20.92,20.92
			s9.385,20.92,20.92,20.92h155.247c11.535,0,20.92-9.385,20.92-20.92s-9.385-20.92-20.92-20.92H187.382z"/>
	</g>
</g>
</svg>